<svg viewBox="0 0 200 200" fill="none" xmlns="http://www.w3.org/2000/svg">
  <!-- Top petal - dark with red dot and sparkles -->
  <ellipse
    cx="100" cy="70"
    rx="35" ry="55"
    transform="rotate(0 100 70)"
    fill="url(#darkGradient)"
    stroke="#1a1a1a"
    stroke-width="2"
  />
  <!-- Red dot in dark petal -->
  <circle cx="100" cy="70" r="6" fill="#ef4444" />
  <!-- Sparkles in dark petal -->
  <circle cx="90" cy="55" r="1" fill="white" opacity="0.8" />
  <circle cx="110" cy="60" r="0.8" fill="white" opacity="0.6" />
  <circle cx="95" cy="80" r="0.5" fill="white" opacity="0.7" />
  <circle cx="108" cy="78" r="0.8" fill="white" opacity="0.5" />
  
  <!-- Right petal - red gradient with sparkles -->
  <ellipse
    cx="130" cy="100"
    rx="35" ry="55"
    transform="rotate(90 130 100)"
    fill="url(#redGradient)"
    stroke="#8b0000"
    stroke-width="2"
  />
  <!-- Sparkles in red petal -->
  <circle cx="145" cy="90" r="0.8" fill="#ffcccc" opacity="0.8" />
  <circle cx="140" cy="110" r="0.5" fill="#ffcccc" opacity="0.6" />
  <circle cx="120" cy="95" r="1" fill="#ffcccc" opacity="0.7" />
  <circle cx="125" cy="105" r="0.5" fill="#ffcccc" opacity="0.5" />
  
  <!-- Bottom petal - green gradient with sparkles -->
  <ellipse
    cx="100" cy="130"
    rx="35" ry="55"
    transform="rotate(180 100 130)"
    fill="url(#greenGradient)"
    stroke="#0f5132"
    stroke-width="2"
  />
  <!-- Sparkles in green petal -->
  <circle cx="90" cy="145" r="0.5" fill="#ccffcc" opacity="0.8" />
  <circle cx="110" cy="140" r="0.8" fill="#ccffcc" opacity="0.6" />
  <circle cx="95" cy="120" r="0.5" fill="#ccffcc" opacity="0.7" />
  <circle cx="108" cy="125" r="1" fill="#ccffcc" opacity="0.5" />
  
  <!-- Left petal - purple gradient with sparkles -->
  <ellipse
    cx="70" cy="100"
    rx="35" ry="55"
    transform="rotate(270 70 100)"
    fill="url(#purpleGradient)"
    stroke="#4c1d95"
    stroke-width="2"
  />
  <!-- Sparkles in purple petal -->
  <circle cx="55" cy="90" r="0.8" fill="#e6ccff" opacity="0.8" />
  <circle cx="60" cy="110" r="0.5" fill="#e6ccff" opacity="0.6" />
  <circle cx="80" cy="95" r="0.5" fill="#e6ccff" opacity="0.7" />
  <circle cx="75" cy="105" r="0.8" fill="#e6ccff" opacity="0.5" />
  <circle cx="65" cy="100" r="0.5" fill="#e6ccff" opacity="0.6" />
  
  <!-- Center circle for balance -->
  <circle cx="100" cy="100" r="8" fill="url(#centerGradient)" stroke="#333" stroke-width="1" />
  
  <defs>
    <radialGradient id="darkGradient" cx="0.3" cy="0.3" r="0.9">
      <stop offset="0%" stop-color="#4a4a4a" />
      <stop offset="50%" stop-color="#2a2a2a" />
      <stop offset="100%" stop-color="#1a1a1a" />
    </radialGradient>
    <radialGradient id="redGradient" cx="0.3" cy="0.3" r="0.9">
      <stop offset="0%" stop-color="#ff4444" />
      <stop offset="50%" stop-color="#dc2626" />
      <stop offset="100%" stop-color="#8b0000" />
    </radialGradient>
    <radialGradient id="greenGradient" cx="0.3" cy="0.3" r="0.9">
      <stop offset="0%" stop-color="#44ff44" />
      <stop offset="50%" stop-color="#22c55e" />
      <stop offset="100%" stop-color="#0f5132" />
    </radialGradient>
    <radialGradient id="purpleGradient" cx="0.3" cy="0.3" r="0.9">
      <stop offset="0%" stop-color="#aa55ff" />
      <stop offset="50%" stop-color="#7c3aed" />
      <stop offset="100%" stop-color="#4c1d95" />
    </radialGradient>
    <radialGradient id="centerGradient" cx="0.3" cy="0.3" r="0.8">
      <stop offset="0%" stop-color="#ffffff" />
      <stop offset="50%" stop-color="#f3f4f6" />
      <stop offset="100%" stop-color="#d1d5db" />
    </radialGradient>
  </defs>
</svg>